<?xml version="1.0" encoding="utf-8"?>
<!-- Generator: Adobe Illustrator 26.5.0, SVG Export Plug-In . SVG Version: 6.00 Build 0)  -->
<svg version="1.1" xmlns="http://www.w3.org/2000/svg" xmlns:xlink="http://www.w3.org/1999/xlink" x="0px" y="0px"
	 viewBox="0 0 1417.3 1417.3" style="enable-background:new 0 0 1417.3 1417.3;" xml:space="preserve">
<style type="text/css">
	.st0{display:none;}
	.st1{display:inline;}
	.st2{fill:#7CB929;stroke:#000000;stroke-miterlimit:10;}
	.st3{fill:none;stroke:#000000;stroke-width:14;stroke-miterlimit:10;}
	.st4{font-family:'ArialMT';}
	.st5{font-size:60px;}
</style>
<g id="Layer_1" class="st0">
	<g id="Layer_1_00000026125564240628350540000012801584751788387726_" class="st1">
		<rect x="160" y="276.5" class="st2" width="942" height="942"/>
		<line class="st3" x1="160" y1="1219.5" x2="1340.8" y2="1219.5"/>
		<line class="st3" x1="160" y1="53" x2="160" y2="1221.8"/>
		<line class="st3" x1="1270.1" y1="1289.2" x2="1340.8" y2="1218.5"/>
		<line class="st3" x1="1340.8" y1="1225.1" x2="1270.1" y2="1154.4"/>
		<line class="st3" x1="227.4" y1="130.8" x2="156.7" y2="60.1"/>
		<line class="st3" x1="163.3" y1="60.1" x2="92.6" y2="130.8"/>
		<text transform="matrix(1 0 0 1 76.5338 1289.2073)" class="st4 st5">(0,0)</text>
		<text transform="matrix(1 0 0 1 1044.3212 1289.2072)" class="st4 st5">(1,0)</text>
		<text transform="matrix(1 0 0 1 1040.6616 249.9234)" class="st4 st5">(1,1)</text>
		<text transform="matrix(1 0 0 1 183.0925 237.3234)" class="st4 st5">(0,1)</text>
	</g>
	<g id="Layer_2_00000013178848374398179850000001898392333068780216_" class="st1">
	</g>
</g>
<g id="Layer_2">
	<g>
		<g>
			
				<image style="overflow:visible;" width="1120" height="1097" xlink:href="CC5BA30C5BDA4AFF.png"  transform="matrix(1 0 0 1 110.3166 160.1499)">
			</image>
		</g>
	</g>
</g>
<g id="Layer_3">
</g>
</svg>
