<?xml version="1.0" encoding="UTF-8"?><svg id="Layer_2" xmlns="http://www.w3.org/2000/svg" viewBox="0 0 145.36 116.49"><defs><style>.cls-1{fill:#7cb929;stroke:#1d1d1b;stroke-miterlimit:10;}</style></defs><g id="Layer_1-2"><rect class="cls-1" x=".5" y=".5" width="28.87" height="28.87"/><rect class="cls-1" x="29.37" y=".5" width="28.87" height="28.87"/><rect class="cls-1" x="58.24" y=".5" width="28.87" height="28.87"/><rect class="cls-1" x="87.12" y=".5" width="28.87" height="28.87"/><rect class="cls-1" x="115.99" y=".5" width="28.87" height="28.87"/><rect class="cls-1" x=".5" y="29.37" width="28.87" height="28.87"/><rect class="cls-1" x="29.37" y="29.37" width="28.87" height="28.87"/><rect class="cls-1" x="58.24" y="29.37" width="28.87" height="28.87"/><rect class="cls-1" x="87.12" y="29.37" width="28.87" height="28.87"/><rect class="cls-1" x="115.99" y="29.37" width="28.87" height="28.87"/><rect class="cls-1" x=".5" y="58.24" width="28.87" height="28.87"/><rect class="cls-1" x="29.37" y="58.24" width="28.87" height="28.87"/><rect class="cls-1" x="58.24" y="58.24" width="28.87" height="28.87"/><rect class="cls-1" x="87.12" y="58.24" width="28.87" height="28.87"/><rect class="cls-1" x="115.99" y="58.24" width="28.87" height="28.87"/><rect class="cls-1" x=".5" y="87.12" width="28.87" height="28.87"/><rect class="cls-1" x="29.37" y="87.12" width="28.87" height="28.87"/><rect class="cls-1" x="58.24" y="87.12" width="28.87" height="28.87"/><rect class="cls-1" x="87.12" y="87.12" width="28.87" height="28.87"/><rect class="cls-1" x="115.99" y="87.12" width="28.87" height="28.87"/></g></svg>